<mxfile host="app.diagrams.net" modified="2023-08-22T05:36:06.954Z" agent="Mozilla/5.0 (Windows NT 10.0; Win64; x64) AppleWebKit/537.36 (KHTML, like Gecko) Chrome/116.0.0.0 Safari/537.36" etag="qfz_qqP348emmKDzgn1k" version="21.6.8" type="github">
  <diagram name="第 1 页" id="GzfE-yEDeLufz6VU4njj">
    <mxGraphModel dx="2473" dy="1602" grid="1" gridSize="10" guides="1" tooltips="1" connect="1" arrows="1" fold="1" page="1" pageScale="1" pageWidth="827" pageHeight="1169" math="0" shadow="0">
      <root>
        <mxCell id="0" />
        <mxCell id="1" parent="0" />
        <mxCell id="2" value="Start" style="whiteSpace=wrap;strokeWidth=2;" parent="1" vertex="1">
          <mxGeometry x="-720" y="-597" width="51" height="34" as="geometry" />
        </mxCell>
        <mxCell id="4" value="End" style="whiteSpace=wrap;strokeWidth=2;" parent="1" vertex="1">
          <mxGeometry x="-220" y="-597" width="41" height="34" as="geometry" />
        </mxCell>
        <mxCell id="5" value="" style="curved=1;startArrow=none;endArrow=block;exitX=0.9934129901960784;exitY=0.5;" parent="1" source="2" target="F0pO8iZFiC6hmlwL7Zcl-8" edge="1">
          <mxGeometry relative="1" as="geometry">
            <Array as="points" />
            <mxPoint x="-540" y="-580" as="targetPoint" />
          </mxGeometry>
        </mxCell>
        <mxCell id="6" value="" style="curved=1;startArrow=none;endArrow=block;entryX=-0.0009527439024390244;entryY=0.5;exitX=1;exitY=0.5;exitDx=0;exitDy=0;" parent="1" source="F0pO8iZFiC6hmlwL7Zcl-8" target="4" edge="1">
          <mxGeometry relative="1" as="geometry">
            <Array as="points" />
            <mxPoint x="-370" y="-580" as="sourcePoint" />
          </mxGeometry>
        </mxCell>
        <mxCell id="F0pO8iZFiC6hmlwL7Zcl-36" style="edgeStyle=orthogonalEdgeStyle;rounded=0;orthogonalLoop=1;jettySize=auto;html=1;exitX=0.5;exitY=1;exitDx=0;exitDy=0;entryX=0.5;entryY=0;entryDx=0;entryDy=0;" parent="1" source="F0pO8iZFiC6hmlwL7Zcl-6" target="F0pO8iZFiC6hmlwL7Zcl-35" edge="1">
          <mxGeometry relative="1" as="geometry" />
        </mxCell>
        <mxCell id="F0pO8iZFiC6hmlwL7Zcl-6" value="Write_Memory" style="shape=process;whiteSpace=wrap;html=1;backgroundOutline=1;" parent="1" vertex="1">
          <mxGeometry x="-915" y="-440" width="120" height="60" as="geometry" />
        </mxCell>
        <mxCell id="F0pO8iZFiC6hmlwL7Zcl-17" style="edgeStyle=orthogonalEdgeStyle;rounded=0;orthogonalLoop=1;jettySize=auto;html=1;entryX=0.5;entryY=0;entryDx=0;entryDy=0;" parent="1" source="F0pO8iZFiC6hmlwL7Zcl-8" target="F0pO8iZFiC6hmlwL7Zcl-6" edge="1">
          <mxGeometry relative="1" as="geometry">
            <mxPoint x="-500" y="-547" as="sourcePoint" />
            <Array as="points">
              <mxPoint x="-500" y="-520" />
              <mxPoint x="-855" y="-520" />
            </Array>
          </mxGeometry>
        </mxCell>
        <mxCell id="F0pO8iZFiC6hmlwL7Zcl-18" style="edgeStyle=orthogonalEdgeStyle;rounded=0;orthogonalLoop=1;jettySize=auto;html=1;exitX=0.25;exitY=1;exitDx=0;exitDy=0;entryX=0.5;entryY=0;entryDx=0;entryDy=0;" parent="1" source="F0pO8iZFiC6hmlwL7Zcl-8" target="F0pO8iZFiC6hmlwL7Zcl-14" edge="1">
          <mxGeometry relative="1" as="geometry">
            <Array as="points">
              <mxPoint x="-480" y="-460" />
              <mxPoint x="-590" y="-460" />
            </Array>
          </mxGeometry>
        </mxCell>
        <mxCell id="OXjSecTWh2fNsdve-tAi-75" style="edgeStyle=orthogonalEdgeStyle;rounded=0;orthogonalLoop=1;jettySize=auto;html=1;exitX=1;exitY=1;exitDx=0;exitDy=0;entryX=0.5;entryY=0;entryDx=0;entryDy=0;" edge="1" parent="1" source="F0pO8iZFiC6hmlwL7Zcl-8" target="F0pO8iZFiC6hmlwL7Zcl-16">
          <mxGeometry relative="1" as="geometry">
            <Array as="points">
              <mxPoint x="-407" y="-540" />
              <mxPoint x="300" y="-540" />
            </Array>
          </mxGeometry>
        </mxCell>
        <mxCell id="OXjSecTWh2fNsdve-tAi-76" style="edgeStyle=orthogonalEdgeStyle;rounded=0;orthogonalLoop=1;jettySize=auto;html=1;exitX=0.75;exitY=1;exitDx=0;exitDy=0;" edge="1" parent="1" source="F0pO8iZFiC6hmlwL7Zcl-8" target="F0pO8iZFiC6hmlwL7Zcl-15">
          <mxGeometry relative="1" as="geometry" />
        </mxCell>
        <mxCell id="OXjSecTWh2fNsdve-tAi-78" style="edgeStyle=orthogonalEdgeStyle;rounded=0;orthogonalLoop=1;jettySize=auto;html=1;exitX=0.5;exitY=1;exitDx=0;exitDy=0;" edge="1" parent="1" source="F0pO8iZFiC6hmlwL7Zcl-8" target="OXjSecTWh2fNsdve-tAi-74">
          <mxGeometry relative="1" as="geometry">
            <Array as="points">
              <mxPoint x="-450" y="-460" />
              <mxPoint x="-320" y="-460" />
            </Array>
          </mxGeometry>
        </mxCell>
        <mxCell id="F0pO8iZFiC6hmlwL7Zcl-8" value="Form_A" style="shape=parallelogram;perimeter=parallelogramPerimeter;whiteSpace=wrap;html=1;fixedSize=1;" parent="1" vertex="1">
          <mxGeometry x="-510" y="-610" width="120" height="60" as="geometry" />
        </mxCell>
        <mxCell id="F0pO8iZFiC6hmlwL7Zcl-88" style="edgeStyle=orthogonalEdgeStyle;rounded=0;orthogonalLoop=1;jettySize=auto;html=1;exitX=0.5;exitY=1;exitDx=0;exitDy=0;entryX=0.5;entryY=0;entryDx=0;entryDy=0;" parent="1" source="F0pO8iZFiC6hmlwL7Zcl-14" target="F0pO8iZFiC6hmlwL7Zcl-78" edge="1">
          <mxGeometry relative="1" as="geometry" />
        </mxCell>
        <mxCell id="F0pO8iZFiC6hmlwL7Zcl-14" value="Read_Memory" style="shape=process;whiteSpace=wrap;html=1;backgroundOutline=1;" parent="1" vertex="1">
          <mxGeometry x="-650" y="-440" width="120" height="60" as="geometry" />
        </mxCell>
        <mxCell id="OXjSecTWh2fNsdve-tAi-80" style="edgeStyle=orthogonalEdgeStyle;rounded=0;orthogonalLoop=1;jettySize=auto;html=1;exitX=0.5;exitY=1;exitDx=0;exitDy=0;" edge="1" parent="1" source="F0pO8iZFiC6hmlwL7Zcl-15" target="OXjSecTWh2fNsdve-tAi-79">
          <mxGeometry relative="1" as="geometry" />
        </mxCell>
        <mxCell id="F0pO8iZFiC6hmlwL7Zcl-15" value="WndProc(ref Message m)" style="shape=process;whiteSpace=wrap;html=1;backgroundOutline=1;" parent="1" vertex="1">
          <mxGeometry x="-125" y="-430" width="175" height="60" as="geometry" />
        </mxCell>
        <mxCell id="OXjSecTWh2fNsdve-tAi-68" style="edgeStyle=orthogonalEdgeStyle;rounded=0;orthogonalLoop=1;jettySize=auto;html=1;exitX=0.5;exitY=1;exitDx=0;exitDy=0;" edge="1" parent="1" source="F0pO8iZFiC6hmlwL7Zcl-16" target="OXjSecTWh2fNsdve-tAi-44">
          <mxGeometry relative="1" as="geometry" />
        </mxCell>
        <mxCell id="F0pO8iZFiC6hmlwL7Zcl-16" value="WriteMessage&lt;br&gt;SendMessage" style="shape=process;whiteSpace=wrap;html=1;backgroundOutline=1;" parent="1" vertex="1">
          <mxGeometry x="240" y="-440" width="120" height="60" as="geometry" />
        </mxCell>
        <mxCell id="F0pO8iZFiC6hmlwL7Zcl-40" style="edgeStyle=orthogonalEdgeStyle;rounded=0;orthogonalLoop=1;jettySize=auto;html=1;exitX=0.5;exitY=1;exitDx=0;exitDy=0;entryX=0.5;entryY=0;entryDx=0;entryDy=0;" parent="1" source="F0pO8iZFiC6hmlwL7Zcl-74" target="F0pO8iZFiC6hmlwL7Zcl-38" edge="1">
          <mxGeometry relative="1" as="geometry">
            <mxPoint x="-760" y="-110" as="sourcePoint" />
          </mxGeometry>
        </mxCell>
        <mxCell id="F0pO8iZFiC6hmlwL7Zcl-37" style="edgeStyle=orthogonalEdgeStyle;rounded=0;orthogonalLoop=1;jettySize=auto;html=1;exitX=0.5;exitY=1;exitDx=0;exitDy=0;entryX=0.528;entryY=0.023;entryDx=0;entryDy=0;entryPerimeter=0;" parent="1" source="F0pO8iZFiC6hmlwL7Zcl-35" target="F0pO8iZFiC6hmlwL7Zcl-60" edge="1">
          <mxGeometry relative="1" as="geometry">
            <mxPoint x="-760" y="-230" as="targetPoint" />
          </mxGeometry>
        </mxCell>
        <mxCell id="F0pO8iZFiC6hmlwL7Zcl-35" value="Mutex&lt;br&gt;(WaitOne)" style="ellipse;shape=umlEntity;whiteSpace=wrap;html=1;" parent="1" vertex="1">
          <mxGeometry x="-905" y="-340" width="100" height="80" as="geometry" />
        </mxCell>
        <mxCell id="F0pO8iZFiC6hmlwL7Zcl-38" value="Mutex&lt;br&gt;(ReleaseMutex)" style="ellipse;shape=umlEntity;whiteSpace=wrap;html=1;" parent="1" vertex="1">
          <mxGeometry x="-905" y="50" width="100" height="80" as="geometry" />
        </mxCell>
        <mxCell id="OXjSecTWh2fNsdve-tAi-26" style="edgeStyle=orthogonalEdgeStyle;rounded=0;orthogonalLoop=1;jettySize=auto;html=1;exitX=0;exitY=0.5;exitDx=0;exitDy=0;entryX=0;entryY=0.5;entryDx=0;entryDy=0;" edge="1" parent="1" source="F0pO8iZFiC6hmlwL7Zcl-44" target="OXjSecTWh2fNsdve-tAi-11">
          <mxGeometry relative="1" as="geometry">
            <Array as="points">
              <mxPoint x="-460" y="377" />
              <mxPoint x="-460" y="-190" />
            </Array>
          </mxGeometry>
        </mxCell>
        <mxCell id="F0pO8iZFiC6hmlwL7Zcl-41" value="COPYDATASTRUCT AS cds" style="swimlane;fontStyle=1;align=center;verticalAlign=top;childLayout=stackLayout;horizontal=1;startSize=26;horizontalStack=0;resizeParent=1;resizeParentMax=0;resizeLast=0;collapsible=1;marginBottom=0;whiteSpace=wrap;html=1;" parent="1" vertex="1">
          <mxGeometry x="-425" y="260" width="210" height="182" as="geometry">
            <mxRectangle x="-420" y="-270" width="150" height="30" as="alternateBounds" />
          </mxGeometry>
        </mxCell>
        <mxCell id="OXjSecTWh2fNsdve-tAi-39" value="+ dwData : IntPtr&amp;nbsp; 資料類型" style="text;strokeColor=none;fillColor=none;align=left;verticalAlign=top;spacingLeft=4;spacingRight=4;overflow=hidden;rotatable=0;points=[[0,0.5],[1,0.5]];portConstraint=eastwest;whiteSpace=wrap;html=1;" vertex="1" parent="F0pO8iZFiC6hmlwL7Zcl-41">
          <mxGeometry y="26" width="210" height="26" as="geometry" />
        </mxCell>
        <mxCell id="OXjSecTWh2fNsdve-tAi-38" value="+ dwData : IntPtr&amp;nbsp; 資料類型" style="text;strokeColor=none;fillColor=none;align=left;verticalAlign=top;spacingLeft=4;spacingRight=4;overflow=hidden;rotatable=0;points=[[0,0.5],[1,0.5]];portConstraint=eastwest;whiteSpace=wrap;html=1;" vertex="1" parent="F0pO8iZFiC6hmlwL7Zcl-41">
          <mxGeometry y="52" width="210" height="26" as="geometry" />
        </mxCell>
        <mxCell id="F0pO8iZFiC6hmlwL7Zcl-42" value="+ dwData : IntPtr&amp;nbsp; 資料類型" style="text;strokeColor=none;fillColor=none;align=left;verticalAlign=top;spacingLeft=4;spacingRight=4;overflow=hidden;rotatable=0;points=[[0,0.5],[1,0.5]];portConstraint=eastwest;whiteSpace=wrap;html=1;" parent="F0pO8iZFiC6hmlwL7Zcl-41" vertex="1">
          <mxGeometry y="78" width="210" height="26" as="geometry" />
        </mxCell>
        <mxCell id="F0pO8iZFiC6hmlwL7Zcl-44" value="+ cbData : int&amp;nbsp; &amp;nbsp;資料的大小" style="text;strokeColor=none;fillColor=none;align=left;verticalAlign=top;spacingLeft=4;spacingRight=4;overflow=hidden;rotatable=0;points=[[0,0.5],[1,0.5]];portConstraint=eastwest;whiteSpace=wrap;html=1;" parent="F0pO8iZFiC6hmlwL7Zcl-41" vertex="1">
          <mxGeometry y="104" width="210" height="26" as="geometry" />
        </mxCell>
        <mxCell id="F0pO8iZFiC6hmlwL7Zcl-55" value="&amp;nbsp;[MarshalAs(UnmanagedType.LPStr)]" style="text;strokeColor=none;fillColor=none;align=left;verticalAlign=top;spacingLeft=4;spacingRight=4;overflow=hidden;rotatable=0;points=[[0,0.5],[1,0.5]];portConstraint=eastwest;whiteSpace=wrap;html=1;" parent="F0pO8iZFiC6hmlwL7Zcl-41" vertex="1">
          <mxGeometry y="130" width="210" height="26" as="geometry" />
        </mxCell>
        <mxCell id="F0pO8iZFiC6hmlwL7Zcl-56" value="+ lpData : string資料" style="text;strokeColor=none;fillColor=none;align=left;verticalAlign=top;spacingLeft=4;spacingRight=4;overflow=hidden;rotatable=0;points=[[0,0.5],[1,0.5]];portConstraint=eastwest;whiteSpace=wrap;html=1;" parent="F0pO8iZFiC6hmlwL7Zcl-41" vertex="1">
          <mxGeometry y="156" width="210" height="26" as="geometry" />
        </mxCell>
        <mxCell id="F0pO8iZFiC6hmlwL7Zcl-75" value="" style="group" parent="1" vertex="1" connectable="0">
          <mxGeometry x="-980" y="-220" width="250" height="178" as="geometry" />
        </mxCell>
        <mxCell id="F0pO8iZFiC6hmlwL7Zcl-74" value="" style="html=1;whiteSpace=wrap;" parent="F0pO8iZFiC6hmlwL7Zcl-75" vertex="1">
          <mxGeometry y="78" width="250" height="100" as="geometry" />
        </mxCell>
        <mxCell id="F0pO8iZFiC6hmlwL7Zcl-60" value="MemoryMappedViewStream" style="swimlane;fontStyle=0;childLayout=stackLayout;horizontal=1;startSize=26;fillColor=none;horizontalStack=0;resizeParent=1;resizeParentMax=0;resizeLast=0;collapsible=1;marginBottom=0;whiteSpace=wrap;html=1;" parent="F0pO8iZFiC6hmlwL7Zcl-75" vertex="1">
          <mxGeometry x="35" width="170" height="78" as="geometry" />
        </mxCell>
        <mxCell id="F0pO8iZFiC6hmlwL7Zcl-61" value="+ iStart: int" style="text;strokeColor=none;fillColor=none;align=left;verticalAlign=top;spacingLeft=4;spacingRight=4;overflow=hidden;rotatable=0;points=[[0,0.5],[1,0.5]];portConstraint=eastwest;whiteSpace=wrap;html=1;" parent="F0pO8iZFiC6hmlwL7Zcl-60" vertex="1">
          <mxGeometry y="26" width="170" height="26" as="geometry" />
        </mxCell>
        <mxCell id="F0pO8iZFiC6hmlwL7Zcl-62" value="+ iSize: int" style="text;strokeColor=none;fillColor=none;align=left;verticalAlign=top;spacingLeft=4;spacingRight=4;overflow=hidden;rotatable=0;points=[[0,0.5],[1,0.5]];portConstraint=eastwest;whiteSpace=wrap;html=1;" parent="F0pO8iZFiC6hmlwL7Zcl-60" vertex="1">
          <mxGeometry y="52" width="170" height="26" as="geometry" />
        </mxCell>
        <mxCell id="F0pO8iZFiC6hmlwL7Zcl-71" value="BinaryWriter" style="swimlane;fontStyle=0;childLayout=stackLayout;horizontal=1;startSize=26;fillColor=none;horizontalStack=0;resizeParent=1;resizeParentMax=0;resizeLast=0;collapsible=1;marginBottom=0;whiteSpace=wrap;html=1;" parent="F0pO8iZFiC6hmlwL7Zcl-75" vertex="1">
          <mxGeometry x="15" y="89" width="220" height="78" as="geometry" />
        </mxCell>
        <mxCell id="F0pO8iZFiC6hmlwL7Zcl-72" value="&amp;nbsp;bwWriter.Write(bMessageWrite.Length)" style="text;strokeColor=none;fillColor=none;align=left;verticalAlign=top;spacingLeft=4;spacingRight=4;overflow=hidden;rotatable=0;points=[[0,0.5],[1,0.5]];portConstraint=eastwest;whiteSpace=wrap;html=1;" parent="F0pO8iZFiC6hmlwL7Zcl-71" vertex="1">
          <mxGeometry y="26" width="220" height="26" as="geometry" />
        </mxCell>
        <mxCell id="F0pO8iZFiC6hmlwL7Zcl-73" value="bwWriter.&lt;font color=&quot;#ff8000&quot;&gt;Write&lt;/font&gt;(bMessageWrite)" style="text;strokeColor=none;fillColor=none;align=left;verticalAlign=top;spacingLeft=4;spacingRight=4;overflow=hidden;rotatable=0;points=[[0,0.5],[1,0.5]];portConstraint=eastwest;whiteSpace=wrap;html=1;" parent="F0pO8iZFiC6hmlwL7Zcl-71" vertex="1">
          <mxGeometry y="52" width="220" height="26" as="geometry" />
        </mxCell>
        <mxCell id="F0pO8iZFiC6hmlwL7Zcl-76" style="edgeStyle=orthogonalEdgeStyle;rounded=0;orthogonalLoop=1;jettySize=auto;html=1;exitX=0.5;exitY=1;exitDx=0;exitDy=0;entryX=0.5;entryY=0;entryDx=0;entryDy=0;" parent="1" source="F0pO8iZFiC6hmlwL7Zcl-81" target="F0pO8iZFiC6hmlwL7Zcl-79" edge="1">
          <mxGeometry relative="1" as="geometry">
            <mxPoint x="-540" y="-110" as="sourcePoint" />
          </mxGeometry>
        </mxCell>
        <mxCell id="F0pO8iZFiC6hmlwL7Zcl-77" style="edgeStyle=orthogonalEdgeStyle;rounded=0;orthogonalLoop=1;jettySize=auto;html=1;exitX=0.5;exitY=1;exitDx=0;exitDy=0;entryX=0.5;entryY=0;entryDx=0;entryDy=0;" parent="1" source="F0pO8iZFiC6hmlwL7Zcl-78" target="F0pO8iZFiC6hmlwL7Zcl-82" edge="1">
          <mxGeometry relative="1" as="geometry">
            <mxPoint x="-540" y="-230" as="targetPoint" />
          </mxGeometry>
        </mxCell>
        <mxCell id="F0pO8iZFiC6hmlwL7Zcl-78" value="Mutex&lt;br&gt;(WaitOne)" style="ellipse;shape=umlEntity;whiteSpace=wrap;html=1;" parent="1" vertex="1">
          <mxGeometry x="-640" y="-340" width="100" height="80" as="geometry" />
        </mxCell>
        <mxCell id="F0pO8iZFiC6hmlwL7Zcl-79" value="Mutex&lt;br&gt;(ReleaseMutex)" style="ellipse;shape=umlEntity;whiteSpace=wrap;html=1;" parent="1" vertex="1">
          <mxGeometry x="-640" y="50" width="100" height="80" as="geometry" />
        </mxCell>
        <mxCell id="F0pO8iZFiC6hmlwL7Zcl-80" value="" style="group" parent="1" vertex="1" connectable="0">
          <mxGeometry x="-710" y="-220" width="330" height="230" as="geometry" />
        </mxCell>
        <mxCell id="F0pO8iZFiC6hmlwL7Zcl-81" value="" style="html=1;whiteSpace=wrap;" parent="F0pO8iZFiC6hmlwL7Zcl-80" vertex="1">
          <mxGeometry y="95.87" width="240" height="134.13" as="geometry" />
        </mxCell>
        <mxCell id="F0pO8iZFiC6hmlwL7Zcl-82" value="MemoryMappedViewStream" style="swimlane;fontStyle=0;childLayout=stackLayout;horizontal=1;startSize=26;fillColor=none;horizontalStack=0;resizeParent=1;resizeParentMax=0;resizeLast=0;collapsible=1;marginBottom=0;whiteSpace=wrap;html=1;" parent="F0pO8iZFiC6hmlwL7Zcl-80" vertex="1">
          <mxGeometry x="35" width="170" height="89.91061452513966" as="geometry" />
        </mxCell>
        <mxCell id="F0pO8iZFiC6hmlwL7Zcl-83" value="+ iStart: int" style="text;strokeColor=none;fillColor=none;align=left;verticalAlign=top;spacingLeft=4;spacingRight=4;overflow=hidden;rotatable=0;points=[[0,0.5],[1,0.5]];portConstraint=eastwest;whiteSpace=wrap;html=1;" parent="F0pO8iZFiC6hmlwL7Zcl-82" vertex="1">
          <mxGeometry y="26" width="170" height="31.955307262569832" as="geometry" />
        </mxCell>
        <mxCell id="F0pO8iZFiC6hmlwL7Zcl-84" value="+ iSize: int" style="text;strokeColor=none;fillColor=none;align=left;verticalAlign=top;spacingLeft=4;spacingRight=4;overflow=hidden;rotatable=0;points=[[0,0.5],[1,0.5]];portConstraint=eastwest;whiteSpace=wrap;html=1;" parent="F0pO8iZFiC6hmlwL7Zcl-82" vertex="1">
          <mxGeometry y="57.95530726256983" width="170" height="31.955307262569832" as="geometry" />
        </mxCell>
        <mxCell id="F0pO8iZFiC6hmlwL7Zcl-85" value="BinaryReader" style="swimlane;fontStyle=0;childLayout=stackLayout;horizontal=1;startSize=26;fillColor=none;horizontalStack=0;resizeParent=1;resizeParentMax=0;resizeLast=0;collapsible=1;marginBottom=0;whiteSpace=wrap;html=1;" parent="F0pO8iZFiC6hmlwL7Zcl-80" vertex="1">
          <mxGeometry x="12.5" y="104.99" width="217.5" height="112.61530726256983" as="geometry" />
        </mxCell>
        <mxCell id="F0pO8iZFiC6hmlwL7Zcl-86" value="&amp;nbsp;bwWriter.Write(bMessageWrite.Length)" style="text;strokeColor=none;fillColor=none;align=left;verticalAlign=top;spacingLeft=4;spacingRight=4;overflow=hidden;rotatable=0;points=[[0,0.5],[1,0.5]];portConstraint=eastwest;whiteSpace=wrap;html=1;" parent="F0pO8iZFiC6hmlwL7Zcl-85" vertex="1">
          <mxGeometry y="26" width="217.5" height="31.955307262569832" as="geometry" />
        </mxCell>
        <mxCell id="F0pO8iZFiC6hmlwL7Zcl-87" value="Encoding.UTF8.GetString(&lt;br&gt;brReader.ReadBytes(ilength), 0, ilength)&amp;nbsp;" style="text;strokeColor=none;fillColor=none;align=left;verticalAlign=top;spacingLeft=4;spacingRight=4;overflow=hidden;rotatable=0;points=[[0,0.5],[1,0.5]];portConstraint=eastwest;whiteSpace=wrap;html=1;" parent="F0pO8iZFiC6hmlwL7Zcl-85" vertex="1">
          <mxGeometry y="57.95530726256983" width="217.5" height="54.66" as="geometry" />
        </mxCell>
        <mxCell id="OXjSecTWh2fNsdve-tAi-7" value="//編碼看專案" style="text;html=1;strokeColor=none;fillColor=none;align=center;verticalAlign=middle;whiteSpace=wrap;rounded=0;labelBackgroundColor=none;labelBorderColor=#FF8000;" vertex="1" parent="1">
          <mxGeometry x="-710" y="10" width="90" height="30" as="geometry" />
        </mxCell>
        <mxCell id="OXjSecTWh2fNsdve-tAi-9" value="FindWindow" style="swimlane;startSize=20;horizontal=1;childLayout=flowLayout;flowOrientation=north;resizable=0;interRankCellSpacing=50;containerType=tree;fontSize=12;" vertex="1" parent="1">
          <mxGeometry x="-425" y="-340" width="210" height="394" as="geometry" />
        </mxCell>
        <mxCell id="OXjSecTWh2fNsdve-tAi-10" value="FormB" style="whiteSpace=wrap;html=1;" vertex="1" parent="OXjSecTWh2fNsdve-tAi-9">
          <mxGeometry x="55" y="40" width="100" height="40" as="geometry" />
        </mxCell>
        <mxCell id="OXjSecTWh2fNsdve-tAi-33" style="edgeStyle=orthogonalEdgeStyle;rounded=0;orthogonalLoop=1;jettySize=auto;html=1;exitX=0.5;exitY=1;exitDx=0;exitDy=0;entryX=0.5;entryY=0;entryDx=0;entryDy=0;noEdgeStyle=1;orthogonal=1;" edge="1" parent="OXjSecTWh2fNsdve-tAi-9" source="OXjSecTWh2fNsdve-tAi-11" target="OXjSecTWh2fNsdve-tAi-30">
          <mxGeometry relative="1" as="geometry">
            <Array as="points">
              <mxPoint x="105" y="182" />
              <mxPoint x="105" y="207.99999999999997" />
            </Array>
          </mxGeometry>
        </mxCell>
        <mxCell id="OXjSecTWh2fNsdve-tAi-11" value="COPYDATASTRUCT" style="whiteSpace=wrap;html=1;" vertex="1" parent="OXjSecTWh2fNsdve-tAi-9">
          <mxGeometry x="45" y="130" width="120" height="40" as="geometry" />
        </mxCell>
        <mxCell id="OXjSecTWh2fNsdve-tAi-12" value="" style="html=1;rounded=1;curved=0;sourcePerimeterSpacing=0;targetPerimeterSpacing=0;startSize=6;endSize=6;noEdgeStyle=1;orthogonal=1;" edge="1" parent="OXjSecTWh2fNsdve-tAi-9" source="OXjSecTWh2fNsdve-tAi-10" target="OXjSecTWh2fNsdve-tAi-11">
          <mxGeometry relative="1" as="geometry">
            <Array as="points">
              <mxPoint x="105" y="92" />
              <mxPoint x="105" y="118" />
            </Array>
          </mxGeometry>
        </mxCell>
        <mxCell id="OXjSecTWh2fNsdve-tAi-30" value="MemoryMappedViewStream" style="swimlane;fontStyle=0;childLayout=stackLayout;horizontal=1;startSize=26;fillColor=none;horizontalStack=0;resizeParent=1;resizeParentMax=0;resizeLast=0;collapsible=1;marginBottom=0;whiteSpace=wrap;html=1;" vertex="1" parent="OXjSecTWh2fNsdve-tAi-9">
          <mxGeometry x="20" y="219.99999999999997" width="170" height="153.82122905027933" as="geometry" />
        </mxCell>
        <mxCell id="OXjSecTWh2fNsdve-tAi-31" value="+ hWnd: int&amp;nbsp; window代碼" style="text;strokeColor=none;fillColor=none;align=left;verticalAlign=top;spacingLeft=4;spacingRight=4;overflow=hidden;rotatable=0;points=[[0,0.5],[1,0.5]];portConstraint=eastwest;whiteSpace=wrap;html=1;" vertex="1" parent="OXjSecTWh2fNsdve-tAi-30">
          <mxGeometry y="26" width="170" height="31.955307262569832" as="geometry" />
        </mxCell>
        <mxCell id="OXjSecTWh2fNsdve-tAi-32" value="+ Msg: int 訊息種類" style="text;strokeColor=none;fillColor=none;align=left;verticalAlign=top;spacingLeft=4;spacingRight=4;overflow=hidden;rotatable=0;points=[[0,0.5],[1,0.5]];portConstraint=eastwest;whiteSpace=wrap;html=1;" vertex="1" parent="OXjSecTWh2fNsdve-tAi-30">
          <mxGeometry y="57.95530726256983" width="170" height="31.955307262569832" as="geometry" />
        </mxCell>
        <mxCell id="OXjSecTWh2fNsdve-tAi-34" value="+ wParam: int 指定訊息(無)" style="text;strokeColor=none;fillColor=none;align=left;verticalAlign=top;spacingLeft=4;spacingRight=4;overflow=hidden;rotatable=0;points=[[0,0.5],[1,0.5]];portConstraint=eastwest;whiteSpace=wrap;html=1;" vertex="1" parent="OXjSecTWh2fNsdve-tAi-30">
          <mxGeometry y="89.91061452513966" width="170" height="31.955307262569832" as="geometry" />
        </mxCell>
        <mxCell id="OXjSecTWh2fNsdve-tAi-36" value="+ lParam: ref int 指定訊息" style="text;strokeColor=none;fillColor=none;align=left;verticalAlign=top;spacingLeft=4;spacingRight=4;overflow=hidden;rotatable=0;points=[[0,0.5],[1,0.5]];portConstraint=eastwest;whiteSpace=wrap;html=1;" vertex="1" parent="OXjSecTWh2fNsdve-tAi-30">
          <mxGeometry y="121.8659217877095" width="170" height="31.955307262569832" as="geometry" />
        </mxCell>
        <mxCell id="OXjSecTWh2fNsdve-tAi-37" style="edgeStyle=orthogonalEdgeStyle;rounded=0;orthogonalLoop=1;jettySize=auto;html=1;exitX=0;exitY=0.5;exitDx=0;exitDy=0;entryX=0;entryY=0.5;entryDx=0;entryDy=0;" edge="1" parent="1" source="OXjSecTWh2fNsdve-tAi-28" target="OXjSecTWh2fNsdve-tAi-32">
          <mxGeometry relative="1" as="geometry">
            <Array as="points">
              <mxPoint x="-113" y="145" />
              <mxPoint x="-440" y="145" />
              <mxPoint x="-440" y="-46" />
            </Array>
          </mxGeometry>
        </mxCell>
        <mxCell id="OXjSecTWh2fNsdve-tAi-72" style="edgeStyle=orthogonalEdgeStyle;rounded=0;orthogonalLoop=1;jettySize=auto;html=1;exitX=1;exitY=0.5;exitDx=0;exitDy=0;entryX=0.475;entryY=1.044;entryDx=0;entryDy=0;entryPerimeter=0;" edge="1" parent="1" source="OXjSecTWh2fNsdve-tAi-28" target="OXjSecTWh2fNsdve-tAi-66">
          <mxGeometry relative="1" as="geometry">
            <Array as="points">
              <mxPoint x="586" y="245" />
            </Array>
          </mxGeometry>
        </mxCell>
        <mxCell id="OXjSecTWh2fNsdve-tAi-28" value="//WM_COPYDATA = 0x004A&lt;br&gt;不能改 其為固定值&lt;br&gt;修改SendMessage會收不到" style="text;html=1;strokeColor=none;fillColor=none;align=center;verticalAlign=middle;whiteSpace=wrap;rounded=0;labelBorderColor=#FF8000;" vertex="1" parent="1">
          <mxGeometry x="-112.5" y="200" width="155" height="90" as="geometry" />
        </mxCell>
        <mxCell id="OXjSecTWh2fNsdve-tAi-43" style="edgeStyle=orthogonalEdgeStyle;rounded=0;orthogonalLoop=1;jettySize=auto;html=1;exitX=0.5;exitY=1;exitDx=0;exitDy=0;entryX=0.5;entryY=0;entryDx=0;entryDy=0;" edge="1" parent="1" source="OXjSecTWh2fNsdve-tAi-44" target="OXjSecTWh2fNsdve-tAi-47">
          <mxGeometry relative="1" as="geometry" />
        </mxCell>
        <mxCell id="OXjSecTWh2fNsdve-tAi-44" value="Write_Memory" style="shape=process;whiteSpace=wrap;html=1;backgroundOutline=1;" vertex="1" parent="1">
          <mxGeometry x="240" y="-338" width="120" height="60" as="geometry" />
        </mxCell>
        <mxCell id="OXjSecTWh2fNsdve-tAi-45" style="edgeStyle=orthogonalEdgeStyle;rounded=0;orthogonalLoop=1;jettySize=auto;html=1;exitX=0.5;exitY=1;exitDx=0;exitDy=0;entryX=0.5;entryY=0;entryDx=0;entryDy=0;" edge="1" parent="1" target="OXjSecTWh2fNsdve-tAi-48">
          <mxGeometry relative="1" as="geometry">
            <mxPoint x="300" as="sourcePoint" />
          </mxGeometry>
        </mxCell>
        <mxCell id="OXjSecTWh2fNsdve-tAi-46" style="edgeStyle=orthogonalEdgeStyle;rounded=0;orthogonalLoop=1;jettySize=auto;html=1;exitX=0.5;exitY=1;exitDx=0;exitDy=0;entryX=0.528;entryY=0.023;entryDx=0;entryDy=0;entryPerimeter=0;" edge="1" parent="1" source="OXjSecTWh2fNsdve-tAi-47">
          <mxGeometry relative="1" as="geometry">
            <mxPoint x="297.25999999999976" y="-158.20600000000013" as="targetPoint" />
          </mxGeometry>
        </mxCell>
        <mxCell id="OXjSecTWh2fNsdve-tAi-47" value="Mutex&lt;br&gt;(WaitOne)" style="ellipse;shape=umlEntity;whiteSpace=wrap;html=1;" vertex="1" parent="1">
          <mxGeometry x="250" y="-268" width="100" height="80" as="geometry" />
        </mxCell>
        <mxCell id="OXjSecTWh2fNsdve-tAi-67" style="edgeStyle=orthogonalEdgeStyle;rounded=0;orthogonalLoop=1;jettySize=auto;html=1;exitX=0.5;exitY=1;exitDx=0;exitDy=0;entryX=0.5;entryY=0;entryDx=0;entryDy=0;" edge="1" parent="1" source="OXjSecTWh2fNsdve-tAi-48" target="OXjSecTWh2fNsdve-tAi-57">
          <mxGeometry relative="1" as="geometry">
            <Array as="points">
              <mxPoint x="300" y="112" />
              <mxPoint x="455" y="112" />
              <mxPoint x="455" y="-350" />
              <mxPoint x="590" y="-350" />
            </Array>
          </mxGeometry>
        </mxCell>
        <mxCell id="OXjSecTWh2fNsdve-tAi-48" value="Mutex&lt;br&gt;(ReleaseMutex)" style="ellipse;shape=umlEntity;whiteSpace=wrap;html=1;" vertex="1" parent="1">
          <mxGeometry x="250" y="12" width="100" height="80" as="geometry" />
        </mxCell>
        <mxCell id="OXjSecTWh2fNsdve-tAi-57" value="FindWindow" style="swimlane;startSize=20;horizontal=1;childLayout=flowLayout;flowOrientation=north;resizable=0;interRankCellSpacing=50;containerType=tree;fontSize=12;" vertex="1" parent="1">
          <mxGeometry x="485" y="-330" width="210" height="394" as="geometry" />
        </mxCell>
        <mxCell id="OXjSecTWh2fNsdve-tAi-58" value="FormB" style="whiteSpace=wrap;html=1;" vertex="1" parent="OXjSecTWh2fNsdve-tAi-57">
          <mxGeometry x="55" y="40" width="100" height="40" as="geometry" />
        </mxCell>
        <mxCell id="OXjSecTWh2fNsdve-tAi-59" style="edgeStyle=orthogonalEdgeStyle;rounded=0;orthogonalLoop=1;jettySize=auto;html=1;exitX=0.5;exitY=1;exitDx=0;exitDy=0;entryX=0.5;entryY=0;entryDx=0;entryDy=0;noEdgeStyle=1;orthogonal=1;" edge="1" parent="OXjSecTWh2fNsdve-tAi-57" source="OXjSecTWh2fNsdve-tAi-60" target="OXjSecTWh2fNsdve-tAi-62">
          <mxGeometry relative="1" as="geometry">
            <Array as="points">
              <mxPoint x="105" y="182" />
              <mxPoint x="105" y="207.99999999999997" />
            </Array>
          </mxGeometry>
        </mxCell>
        <mxCell id="OXjSecTWh2fNsdve-tAi-60" value="COPYDATASTRUCT" style="whiteSpace=wrap;html=1;" vertex="1" parent="OXjSecTWh2fNsdve-tAi-57">
          <mxGeometry x="45" y="130" width="120" height="40" as="geometry" />
        </mxCell>
        <mxCell id="OXjSecTWh2fNsdve-tAi-61" value="" style="html=1;rounded=1;curved=0;sourcePerimeterSpacing=0;targetPerimeterSpacing=0;startSize=6;endSize=6;noEdgeStyle=1;orthogonal=1;" edge="1" parent="OXjSecTWh2fNsdve-tAi-57" source="OXjSecTWh2fNsdve-tAi-58" target="OXjSecTWh2fNsdve-tAi-60">
          <mxGeometry relative="1" as="geometry">
            <Array as="points">
              <mxPoint x="105" y="92" />
              <mxPoint x="105" y="118" />
            </Array>
          </mxGeometry>
        </mxCell>
        <mxCell id="OXjSecTWh2fNsdve-tAi-62" value="MemoryMappedViewStream" style="swimlane;fontStyle=0;childLayout=stackLayout;horizontal=1;startSize=26;fillColor=none;horizontalStack=0;resizeParent=1;resizeParentMax=0;resizeLast=0;collapsible=1;marginBottom=0;whiteSpace=wrap;html=1;" vertex="1" parent="OXjSecTWh2fNsdve-tAi-57">
          <mxGeometry x="20" y="219.99999999999997" width="170" height="153.82122905027933" as="geometry" />
        </mxCell>
        <mxCell id="OXjSecTWh2fNsdve-tAi-63" value="+ hWnd: int&amp;nbsp; window代碼" style="text;strokeColor=none;fillColor=none;align=left;verticalAlign=top;spacingLeft=4;spacingRight=4;overflow=hidden;rotatable=0;points=[[0,0.5],[1,0.5]];portConstraint=eastwest;whiteSpace=wrap;html=1;" vertex="1" parent="OXjSecTWh2fNsdve-tAi-62">
          <mxGeometry y="26" width="170" height="31.955307262569832" as="geometry" />
        </mxCell>
        <mxCell id="OXjSecTWh2fNsdve-tAi-64" value="+ Msg: int 訊息種類" style="text;strokeColor=none;fillColor=none;align=left;verticalAlign=top;spacingLeft=4;spacingRight=4;overflow=hidden;rotatable=0;points=[[0,0.5],[1,0.5]];portConstraint=eastwest;whiteSpace=wrap;html=1;" vertex="1" parent="OXjSecTWh2fNsdve-tAi-62">
          <mxGeometry y="57.95530726256983" width="170" height="31.955307262569832" as="geometry" />
        </mxCell>
        <mxCell id="OXjSecTWh2fNsdve-tAi-65" value="+ wParam: int 指定訊息(無)" style="text;strokeColor=none;fillColor=none;align=left;verticalAlign=top;spacingLeft=4;spacingRight=4;overflow=hidden;rotatable=0;points=[[0,0.5],[1,0.5]];portConstraint=eastwest;whiteSpace=wrap;html=1;" vertex="1" parent="OXjSecTWh2fNsdve-tAi-62">
          <mxGeometry y="89.91061452513966" width="170" height="31.955307262569832" as="geometry" />
        </mxCell>
        <mxCell id="OXjSecTWh2fNsdve-tAi-66" value="+ lParam: ref int 指定訊息" style="text;strokeColor=none;fillColor=none;align=left;verticalAlign=top;spacingLeft=4;spacingRight=4;overflow=hidden;rotatable=0;points=[[0,0.5],[1,0.5]];portConstraint=eastwest;whiteSpace=wrap;html=1;" vertex="1" parent="OXjSecTWh2fNsdve-tAi-62">
          <mxGeometry y="121.8659217877095" width="170" height="31.955307262569832" as="geometry" />
        </mxCell>
        <mxCell id="OXjSecTWh2fNsdve-tAi-69" style="edgeStyle=orthogonalEdgeStyle;rounded=0;orthogonalLoop=1;jettySize=auto;html=1;exitX=1;exitY=0.5;exitDx=0;exitDy=0;entryX=0;entryY=0.5;entryDx=0;entryDy=0;" edge="1" parent="1" source="F0pO8iZFiC6hmlwL7Zcl-42" target="OXjSecTWh2fNsdve-tAi-60">
          <mxGeometry relative="1" as="geometry">
            <Array as="points">
              <mxPoint x="-215" y="350" />
              <mxPoint x="470" y="350" />
              <mxPoint x="470" y="-180" />
            </Array>
          </mxGeometry>
        </mxCell>
        <mxCell id="OXjSecTWh2fNsdve-tAi-77" style="edgeStyle=orthogonalEdgeStyle;rounded=0;orthogonalLoop=1;jettySize=auto;html=1;exitX=0.5;exitY=1;exitDx=0;exitDy=0;entryX=0.5;entryY=0;entryDx=0;entryDy=0;" edge="1" parent="1" source="OXjSecTWh2fNsdve-tAi-74" target="OXjSecTWh2fNsdve-tAi-9">
          <mxGeometry relative="1" as="geometry" />
        </mxCell>
        <mxCell id="OXjSecTWh2fNsdve-tAi-74" value="SendMessage" style="shape=process;whiteSpace=wrap;html=1;backgroundOutline=1;" vertex="1" parent="1">
          <mxGeometry x="-380" y="-430" width="120" height="60" as="geometry" />
        </mxCell>
        <mxCell id="OXjSecTWh2fNsdve-tAi-98" style="edgeStyle=orthogonalEdgeStyle;rounded=0;orthogonalLoop=1;jettySize=auto;html=1;entryX=0.501;entryY=0.035;entryDx=0;entryDy=0;entryPerimeter=0;" edge="1" parent="1" source="OXjSecTWh2fNsdve-tAi-79" target="OXjSecTWh2fNsdve-tAi-96">
          <mxGeometry relative="1" as="geometry" />
        </mxCell>
        <mxCell id="OXjSecTWh2fNsdve-tAi-79" value="m.Msg == WM_COPYDATA" style="html=1;whiteSpace=wrap;aspect=fixed;shape=isoRectangle;" vertex="1" parent="1">
          <mxGeometry x="-179" y="-273" width="150" height="90" as="geometry" />
        </mxCell>
        <mxCell id="OXjSecTWh2fNsdve-tAi-90" value="MemoryMappedViewStream" style="swimlane;fontStyle=0;childLayout=stackLayout;horizontal=1;startSize=26;fillColor=none;horizontalStack=0;resizeParent=1;resizeParentMax=0;resizeLast=0;collapsible=1;marginBottom=0;whiteSpace=wrap;html=1;" vertex="1" parent="1">
          <mxGeometry x="215" y="-160" width="170" height="78" as="geometry" />
        </mxCell>
        <mxCell id="OXjSecTWh2fNsdve-tAi-91" value="+ iStart: int" style="text;strokeColor=none;fillColor=none;align=left;verticalAlign=top;spacingLeft=4;spacingRight=4;overflow=hidden;rotatable=0;points=[[0,0.5],[1,0.5]];portConstraint=eastwest;whiteSpace=wrap;html=1;" vertex="1" parent="OXjSecTWh2fNsdve-tAi-90">
          <mxGeometry y="26" width="170" height="26" as="geometry" />
        </mxCell>
        <mxCell id="OXjSecTWh2fNsdve-tAi-92" value="+ iSize: int" style="text;strokeColor=none;fillColor=none;align=left;verticalAlign=top;spacingLeft=4;spacingRight=4;overflow=hidden;rotatable=0;points=[[0,0.5],[1,0.5]];portConstraint=eastwest;whiteSpace=wrap;html=1;" vertex="1" parent="OXjSecTWh2fNsdve-tAi-90">
          <mxGeometry y="52" width="170" height="26" as="geometry" />
        </mxCell>
        <mxCell id="OXjSecTWh2fNsdve-tAi-93" value="BinaryWriter" style="swimlane;fontStyle=0;childLayout=stackLayout;horizontal=1;startSize=26;fillColor=none;horizontalStack=0;resizeParent=1;resizeParentMax=0;resizeLast=0;collapsible=1;marginBottom=0;whiteSpace=wrap;html=1;" vertex="1" parent="1">
          <mxGeometry x="190" y="-78" width="220" height="78" as="geometry" />
        </mxCell>
        <mxCell id="OXjSecTWh2fNsdve-tAi-94" value="&amp;nbsp;bwWriter.Write(bMessageWrite.Length)" style="text;strokeColor=none;fillColor=none;align=left;verticalAlign=top;spacingLeft=4;spacingRight=4;overflow=hidden;rotatable=0;points=[[0,0.5],[1,0.5]];portConstraint=eastwest;whiteSpace=wrap;html=1;" vertex="1" parent="OXjSecTWh2fNsdve-tAi-93">
          <mxGeometry y="26" width="220" height="26" as="geometry" />
        </mxCell>
        <mxCell id="OXjSecTWh2fNsdve-tAi-95" value="bwWriter.&lt;font color=&quot;#ff8000&quot;&gt;Write&lt;/font&gt;(bMessageWrite)" style="text;strokeColor=none;fillColor=none;align=left;verticalAlign=top;spacingLeft=4;spacingRight=4;overflow=hidden;rotatable=0;points=[[0,0.5],[1,0.5]];portConstraint=eastwest;whiteSpace=wrap;html=1;" vertex="1" parent="OXjSecTWh2fNsdve-tAi-93">
          <mxGeometry y="52" width="220" height="26" as="geometry" />
        </mxCell>
        <mxCell id="OXjSecTWh2fNsdve-tAi-96" value="cds.cbData &amp;gt; 0 &amp;amp;&amp;amp; cds.lpData != null" style="html=1;whiteSpace=wrap;aspect=fixed;shape=isoRectangle;" vertex="1" parent="1">
          <mxGeometry x="-179" y="-132" width="150" height="90" as="geometry" />
        </mxCell>
        <mxCell id="OXjSecTWh2fNsdve-tAi-99" style="edgeStyle=orthogonalEdgeStyle;rounded=0;orthogonalLoop=1;jettySize=auto;html=1;entryX=-0.002;entryY=0.492;entryDx=0;entryDy=0;entryPerimeter=0;" edge="1" parent="1" source="OXjSecTWh2fNsdve-tAi-39" target="OXjSecTWh2fNsdve-tAi-96">
          <mxGeometry relative="1" as="geometry">
            <Array as="points">
              <mxPoint x="-199" y="299" />
              <mxPoint x="-199" y="-88" />
            </Array>
          </mxGeometry>
        </mxCell>
      </root>
    </mxGraphModel>
  </diagram>
</mxfile>
